<svg data-v-423bf9ae="" xmlns="http://www.w3.org/2000/svg" viewBox="0 0 598 90" class="iconLeft"><!----><!----><!----><g data-v-423bf9ae="" id="f5d5321c-174a-40d8-867e-f74845377376" fill="white" transform="matrix(4.807692484037417,0,0,4.807692484037417,105.6250004953531,-7.836537391829097)"><path d="M0.91 13.44L0.91 7.52L0.91 7.52Q0.91 6.92 1.26 6.57L1.26 6.57L1.26 6.57Q1.61 6.22 2.21 6.22L2.21 6.22L6.83 6.22L6.83 6.22Q6.93 6.37 7.01 6.62L7.01 6.62L7.01 6.62Q7.08 6.87 7.08 7.15L7.08 7.15L7.08 7.15Q7.08 7.69 6.85 7.91L6.85 7.91L6.85 7.91Q6.62 8.13 6.24 8.13L6.24 8.13L3.29 8.13L3.29 9.44L6.44 9.44L6.44 9.44Q6.54 9.59 6.62 9.84L6.62 9.84L6.62 9.84Q6.69 10.08 6.69 10.36L6.69 10.36L6.69 10.36Q6.69 10.89 6.47 11.12L6.47 11.12L6.47 11.12Q6.24 11.34 5.87 11.34L5.87 11.34L3.29 11.34L3.29 12.81L6.89 12.81L6.89 12.81Q6.99 12.96 7.06 13.22L7.06 13.22L7.06 13.22Q7.14 13.47 7.14 13.75L7.14 13.75L7.14 13.75Q7.14 14.28 6.91 14.51L6.91 14.51L6.91 14.51Q6.68 14.74 6.30 14.74L6.30 14.74L2.21 14.74L2.21 14.74Q1.61 14.74 1.26 14.39L1.26 14.39L1.26 14.39Q0.91 14.04 0.91 13.44L0.91 13.44ZM11.55 7.69L11.55 7.69L11.55 7.69Q12.35 7.69 13.00 7.89L13.00 7.89L13.00 7.89Q13.65 8.09 14.10 8.41L14.10 8.41L14.10 8.41Q14.38 8.61 14.54 8.85L14.54 8.85L14.54 8.85Q14.70 9.09 14.70 9.46L14.70 9.46L14.70 14.36L14.70 14.36Q14.70 15.11 14.42 15.65L14.42 15.65L14.42 15.65Q14.14 16.18 13.66 16.54L13.66 16.54L13.66 16.54Q13.17 16.90 12.52 17.07L12.52 17.07L12.52 17.07Q11.87 17.23 11.13 17.23L11.13 17.23L11.13 17.23Q9.86 17.23 9.13 16.89L9.13 16.89L9.13 16.89Q8.40 16.55 8.40 15.78L8.40 15.78L8.40 15.78Q8.40 15.46 8.53 15.21L8.53 15.21L8.53 15.21Q8.67 14.97 8.83 14.84L8.83 14.84L8.83 14.84Q9.24 15.06 9.75 15.22L9.75 15.22L9.75 15.22Q10.26 15.37 10.81 15.37L10.81 15.37L10.81 15.37Q11.56 15.37 12.01 15.12L12.01 15.12L12.01 15.12Q12.46 14.87 12.46 14.31L12.46 14.31L12.46 14.08L12.46 14.08Q11.89 14.34 11.06 14.34L11.06 14.34L11.06 14.34Q10.43 14.34 9.86 14.15L9.86 14.15L9.86 14.15Q9.30 13.96 8.87 13.56L8.87 13.56L8.87 13.56Q8.44 13.16 8.18 12.53L8.18 12.53L8.18 12.53Q7.92 11.90 7.92 11.03L7.92 11.03L7.92 11.03Q7.92 10.18 8.20 9.55L8.20 9.55L8.20 9.55Q8.47 8.92 8.95 8.51L8.95 8.51L8.95 8.51Q9.44 8.09 10.10 7.89L10.10 7.89L10.10 7.89Q10.77 7.69 11.55 7.69ZM12.42 12.29L12.42 9.72L12.42 9.72Q12.32 9.66 12.13 9.60L12.13 9.60L12.13 9.60Q11.94 9.55 11.66 9.55L11.66 9.55L11.66 9.55Q10.98 9.55 10.63 9.93L10.63 9.93L10.63 9.93Q10.29 10.32 10.29 11.03L10.29 11.03L10.29 11.03Q10.29 11.84 10.63 12.20L10.63 12.20L10.63 12.20Q10.98 12.56 11.51 12.56L11.51 12.56L11.51 12.56Q12.08 12.56 12.42 12.29L12.42 12.29ZM16.11 6.01L16.11 6.01L16.11 6.01Q16.11 5.47 16.47 5.11L16.47 5.11L16.47 5.11Q16.83 4.75 17.42 4.75L17.42 4.75L17.42 4.75Q18.00 4.75 18.36 5.11L18.36 5.11L18.36 5.11Q18.72 5.47 18.72 6.01L18.72 6.01L18.72 6.01Q18.72 6.54 18.36 6.90L18.36 6.90L18.36 6.90Q18.00 7.27 17.42 7.27L17.42 7.27L17.42 7.27Q16.83 7.27 16.47 6.90L16.47 6.90L16.47 6.90Q16.11 6.54 16.11 6.01ZM18.61 8.99L18.61 14.69L18.61 14.69Q18.45 14.71 18.15 14.76L18.15 14.76L18.15 14.76Q17.85 14.81 17.54 14.81L17.54 14.81L17.54 14.81Q17.23 14.81 16.99 14.77L16.99 14.77L16.99 14.77Q16.74 14.73 16.58 14.60L16.58 14.60L16.58 14.60Q16.41 14.48 16.32 14.26L16.32 14.26L16.32 14.26Q16.23 14.04 16.23 13.69L16.23 13.69L16.23 7.99L16.23 7.99Q16.38 7.97 16.68 7.92L16.68 7.92L16.68 7.92Q16.98 7.87 17.29 7.87L17.29 7.87L17.29 7.87Q17.60 7.87 17.84 7.91L17.84 7.91L17.84 7.91Q18.09 7.95 18.26 8.08L18.26 8.08L18.26 8.08Q18.42 8.20 18.52 8.42L18.52 8.42L18.52 8.42Q18.61 8.64 18.61 8.99L18.61 8.99ZM19.82 11.30L19.82 11.30L19.82 11.30Q19.82 10.37 20.10 9.70L20.10 9.70L20.10 9.70Q20.38 9.02 20.88 8.57L20.88 8.57L20.88 8.57Q21.38 8.12 22.04 7.90L22.04 7.90L22.04 7.90Q22.71 7.69 23.48 7.69L23.48 7.69L23.48 7.69Q23.76 7.69 24.02 7.74L24.02 7.74L24.02 7.74Q24.29 7.78 24.46 7.85L24.46 7.85L24.46 5.59L24.46 5.59Q24.60 5.54 24.91 5.50L24.91 5.50L24.91 5.50Q25.21 5.45 25.54 5.45L25.54 5.45L25.54 5.45Q25.84 5.45 26.09 5.49L26.09 5.49L26.09 5.49Q26.33 5.53 26.50 5.66L26.50 5.66L26.50 5.66Q26.67 5.78 26.75 6.00L26.75 6.00L26.75 6.00Q26.84 6.22 26.84 6.57L26.84 6.57L26.84 13.20L26.84 13.20Q26.84 13.86 26.22 14.25L26.22 14.25L26.22 14.25Q25.82 14.52 25.17 14.72L25.17 14.72L25.17 14.72Q24.53 14.92 23.69 14.92L23.69 14.92L23.69 14.92Q22.78 14.92 22.06 14.67L22.06 14.67L22.06 14.67Q21.34 14.42 20.84 13.94L20.84 13.94L20.84 13.94Q20.34 13.47 20.08 12.80L20.08 12.80L20.08 12.80Q19.82 12.14 19.82 11.30ZM23.80 9.55L23.80 9.55L23.80 9.55Q23.04 9.55 22.64 9.98L22.64 9.98L22.64 9.98Q22.23 10.42 22.23 11.30L22.23 11.30L22.23 11.30Q22.23 12.17 22.61 12.61L22.61 12.61L22.61 12.61Q22.99 13.05 23.70 13.05L23.70 13.05L23.70 13.05Q23.95 13.05 24.16 12.97L24.16 12.97L24.16 12.97Q24.36 12.89 24.47 12.80L24.47 12.80L24.47 9.72L24.47 9.72Q24.19 9.55 23.80 9.55ZM28.27 6.01L28.27 6.01L28.27 6.01Q28.27 5.47 28.62 5.11L28.62 5.11L28.62 5.11Q28.98 4.75 29.57 4.75L29.57 4.75L29.57 4.75Q30.16 4.75 30.51 5.11L30.51 5.11L30.51 5.11Q30.87 5.47 30.87 6.01L30.87 6.01L30.87 6.01Q30.87 6.54 30.51 6.90L30.51 6.90L30.51 6.90Q30.16 7.27 29.57 7.27L29.57 7.27L29.57 7.27Q28.98 7.27 28.62 6.90L28.62 6.90L28.62 6.90Q28.27 6.54 28.27 6.01ZM30.76 8.99L30.76 14.69L30.76 14.69Q30.60 14.71 30.30 14.76L30.30 14.76L30.30 14.76Q30.00 14.81 29.69 14.81L29.69 14.81L29.69 14.81Q29.39 14.81 29.14 14.77L29.14 14.77L29.14 14.77Q28.90 14.73 28.73 14.60L28.73 14.60L28.73 14.60Q28.56 14.48 28.47 14.26L28.47 14.26L28.47 14.26Q28.38 14.04 28.38 13.69L28.38 13.69L28.38 7.99L28.38 7.99Q28.53 7.97 28.83 7.92L28.83 7.92L28.83 7.92Q29.13 7.87 29.44 7.87L29.44 7.87L29.44 7.87Q29.75 7.87 30.00 7.91L30.00 7.91L30.00 7.91Q30.24 7.95 30.41 8.08L30.41 8.08L30.41 8.08Q30.58 8.20 30.67 8.42L30.67 8.42L30.67 8.42Q30.76 8.64 30.76 8.99L30.76 8.99ZM39.31 11.30L39.31 11.30L39.31 11.30Q39.31 12.17 39.05 12.85L39.05 12.85L39.05 12.85Q38.78 13.52 38.30 13.99L38.30 13.99L38.30 13.99Q37.81 14.45 37.14 14.69L37.14 14.69L37.14 14.69Q36.47 14.92 35.64 14.92L35.64 14.92L35.64 14.92Q34.82 14.92 34.15 14.67L34.15 14.67L34.15 14.67Q33.47 14.42 32.99 13.95L32.99 13.95L32.99 13.95Q32.51 13.48 32.24 12.81L32.24 12.81L32.24 12.81Q31.98 12.14 31.98 11.30L31.98 11.30L31.98 11.30Q31.98 10.47 32.24 9.80L32.24 9.80L32.24 9.80Q32.51 9.13 32.99 8.66L32.99 8.66L32.99 8.66Q33.47 8.19 34.15 7.94L34.15 7.94L34.15 7.94Q34.82 7.69 35.64 7.69L35.64 7.69L35.64 7.69Q36.47 7.69 37.14 7.95L37.14 7.95L37.14 7.95Q37.81 8.20 38.30 8.67L38.30 8.67L38.30 8.67Q38.78 9.14 39.05 9.81L39.05 9.81L39.05 9.81Q39.31 10.49 39.31 11.30ZM34.41 11.30L34.41 11.30L34.41 11.30Q34.41 12.15 34.74 12.61L34.74 12.61L34.74 12.61Q35.07 13.06 35.66 13.06L35.66 13.06L35.66 13.06Q36.25 13.06 36.56 12.60L36.56 12.60L36.56 12.60Q36.88 12.14 36.88 11.30L36.88 11.30L36.88 11.30Q36.88 10.46 36.55 10.00L36.55 10.00L36.55 10.00Q36.23 9.55 35.64 9.55L35.64 9.55L35.64 9.55Q35.06 9.55 34.73 10.00L34.73 10.00L34.73 10.00Q34.41 10.46 34.41 11.30ZM45.89 8.01L45.89 12.88L45.89 12.88Q46.05 12.91 46.27 12.93L46.27 12.93L46.27 12.93Q46.49 12.95 46.69 12.95L46.69 12.95L46.69 12.95Q47.17 12.95 47.56 12.81L47.56 12.81L47.56 12.81Q47.96 12.67 48.25 12.38L48.25 12.38L48.25 12.38Q48.54 12.08 48.70 11.61L48.70 11.61L48.70 11.61Q48.86 11.14 48.86 10.49L48.86 10.49L48.86 10.49Q48.86 9.23 48.27 8.59L48.27 8.59L48.27 8.59Q47.68 7.95 46.70 7.95L46.70 7.95L46.70 7.95Q46.51 7.95 46.30 7.97L46.30 7.97L46.30 7.97Q46.10 7.98 45.89 8.01L45.89 8.01ZM46.68 14.92L46.68 14.92L46.68 14.92Q46.44 14.92 46.13 14.91L46.13 14.91L46.13 14.91Q45.82 14.90 45.49 14.85L45.49 14.85L45.49 14.85Q45.16 14.81 44.84 14.75L44.84 14.75L44.84 14.75Q44.51 14.69 44.23 14.57L44.23 14.57L44.23 14.57Q43.46 14.28 43.46 13.55L43.46 13.55L43.46 7.01L43.46 7.01Q43.46 6.72 43.62 6.56L43.62 6.56L43.62 6.56Q43.78 6.40 44.06 6.30L44.06 6.30L44.06 6.30Q44.66 6.10 45.33 6.04L45.33 6.04L45.33 6.04Q46.00 5.98 46.54 5.98L46.54 5.98L46.54 5.98Q47.63 5.98 48.52 6.24L48.52 6.24L48.52 6.24Q49.41 6.51 50.04 7.06L50.04 7.06L50.04 7.06Q50.68 7.62 51.03 8.46L51.03 8.46L51.03 8.46Q51.38 9.30 51.38 10.44L51.38 10.44L51.38 10.44Q51.38 11.56 51.04 12.40L51.04 12.40L51.04 12.40Q50.71 13.23 50.09 13.80L50.09 13.80L50.09 13.80Q49.46 14.36 48.59 14.64L48.59 14.64L48.59 14.64Q47.73 14.92 46.68 14.92ZM56.20 14.92L56.20 14.92L56.20 14.92Q55.37 14.92 54.66 14.69L54.66 14.69L54.66 14.69Q53.96 14.46 53.43 14.00L53.43 14.00L53.43 14.00Q52.91 13.54 52.60 12.84L52.60 12.84L52.60 12.84Q52.30 12.14 52.30 11.20L52.30 11.20L52.30 11.20Q52.30 10.28 52.60 9.61L52.60 9.61L52.60 9.61Q52.91 8.95 53.40 8.52L53.40 8.52L53.40 8.52Q53.89 8.09 54.52 7.89L54.52 7.89L54.52 7.89Q55.15 7.69 55.80 7.69L55.80 7.69L55.80 7.69Q56.55 7.69 57.16 7.91L57.16 7.91L57.16 7.91Q57.76 8.13 58.20 8.53L58.20 8.53L58.20 8.53Q58.65 8.92 58.89 9.46L58.89 9.46L58.89 9.46Q59.14 10.01 59.14 10.65L59.14 10.65L59.14 10.65Q59.14 11.13 58.87 11.38L58.87 11.38L58.87 11.38Q58.60 11.63 58.13 11.70L58.13 11.70L54.67 12.22L54.67 12.22Q54.82 12.68 55.30 12.92L55.30 12.92L55.30 12.92Q55.78 13.15 56.39 13.15L56.39 13.15L56.39 13.15Q56.97 13.15 57.48 13.00L57.48 13.00L57.48 13.00Q57.99 12.85 58.31 12.66L58.31 12.66L58.31 12.66Q58.53 12.80 58.69 13.05L58.69 13.05L58.69 13.05Q58.84 13.30 58.84 13.58L58.84 13.58L58.84 13.58Q58.84 14.21 58.25 14.52L58.25 14.52L58.25 14.52Q57.81 14.76 57.25 14.84L57.25 14.84L57.25 14.84Q56.69 14.92 56.20 14.92ZM55.80 9.42L55.80 9.42L55.80 9.42Q55.47 9.42 55.22 9.53L55.22 9.53L55.22 9.53Q54.98 9.65 54.82 9.82L54.82 9.82L54.82 9.82Q54.67 10.00 54.59 10.21L54.59 10.21L54.59 10.21Q54.52 10.43 54.50 10.65L54.50 10.65L56.90 10.26L56.90 10.26Q56.85 9.98 56.59 9.70L56.59 9.70L56.59 9.70Q56.32 9.42 55.80 9.42ZM63.24 12.10L60.24 12.10L60.24 12.10Q60.14 11.94 60.06 11.69L60.06 11.69L60.06 11.69Q59.98 11.44 59.98 11.16L59.98 11.16L59.98 11.16Q59.98 10.64 60.21 10.41L60.21 10.41L60.21 10.41Q60.45 10.18 60.83 10.18L60.83 10.18L63.83 10.18L63.83 10.18Q63.91 10.33 64.00 10.58L64.00 10.58L64.00 10.58Q64.09 10.84 64.09 11.12L64.09 11.12L64.09 11.12Q64.09 11.63 63.85 11.87L63.85 11.87L63.85 11.87Q63.62 12.10 63.24 12.10L63.24 12.10ZM68.42 11.52L67.83 11.33L67.83 11.33Q67.21 11.12 66.71 10.90L66.71 10.90L66.71 10.90Q66.21 10.68 65.84 10.37L65.84 10.37L65.84 10.37Q65.48 10.07 65.28 9.64L65.28 9.64L65.28 9.64Q65.07 9.21 65.07 8.60L65.07 8.60L65.07 8.60Q65.07 7.41 65.99 6.69L65.99 6.69L65.99 6.69Q66.91 5.98 68.56 5.98L68.56 5.98L68.56 5.98Q69.16 5.98 69.68 6.06L69.68 6.06L69.68 6.06Q70.20 6.15 70.57 6.32L70.57 6.32L70.57 6.32Q70.94 6.50 71.15 6.77L71.15 6.77L71.15 6.77Q71.36 7.04 71.36 7.41L71.36 7.41L71.36 7.41Q71.36 7.77 71.19 8.03L71.19 8.03L71.19 8.03Q71.02 8.29 70.78 8.47L70.78 8.47L70.78 8.47Q70.48 8.27 69.96 8.13L69.96 8.13L69.96 8.13Q69.44 7.98 68.82 7.98L68.82 7.98L68.82 7.98Q68.19 7.98 67.90 8.16L67.90 8.16L67.90 8.16Q67.61 8.33 67.61 8.60L67.61 8.60L67.61 8.60Q67.61 8.81 67.79 8.94L67.79 8.94L67.79 8.94Q67.97 9.07 68.33 9.18L68.33 9.18L69.08 9.42L69.08 9.42Q70.39 9.84 71.10 10.49L71.10 10.49L71.10 10.49Q71.81 11.14 71.81 12.26L71.81 12.26L71.81 12.26Q71.81 13.45 70.87 14.19L70.87 14.19L70.87 14.19Q69.93 14.92 68.11 14.92L68.11 14.92L68.11 14.92Q67.47 14.92 66.91 14.82L66.91 14.82L66.91 14.82Q66.36 14.71 65.95 14.51L65.95 14.51L65.95 14.51Q65.53 14.31 65.30 14.01L65.30 14.01L65.30 14.01Q65.07 13.71 65.07 13.31L65.07 13.31L65.07 13.31Q65.07 12.91 65.31 12.62L65.31 12.62L65.31 12.62Q65.55 12.33 65.83 12.18L65.83 12.18L65.83 12.18Q66.22 12.49 66.79 12.71L66.79 12.71L66.79 12.71Q67.35 12.94 68.03 12.94L68.03 12.94L68.03 12.94Q68.71 12.94 68.99 12.73L68.99 12.73L68.99 12.73Q69.27 12.52 69.27 12.24L69.27 12.24L69.27 12.24Q69.27 11.96 69.05 11.81L69.05 11.81L69.05 11.81Q68.82 11.66 68.42 11.52L68.42 11.52ZM80.02 11.30L80.02 11.30L80.02 11.30Q80.02 12.17 79.76 12.85L79.76 12.85L79.76 12.85Q79.49 13.52 79.01 13.99L79.01 13.99L79.01 13.99Q78.53 14.45 77.85 14.69L77.85 14.69L77.85 14.69Q77.18 14.92 76.36 14.92L76.36 14.92L76.36 14.92Q75.53 14.92 74.86 14.67L74.86 14.67L74.86 14.67Q74.19 14.42 73.70 13.95L73.70 13.95L73.70 13.95Q73.22 13.48 72.95 12.81L72.95 12.81L72.95 12.81Q72.69 12.14 72.69 11.30L72.69 11.30L72.69 11.30Q72.69 10.47 72.95 9.80L72.95 9.80L72.95 9.80Q73.22 9.13 73.70 8.66L73.70 8.66L73.70 8.66Q74.19 8.19 74.86 7.94L74.86 7.94L74.86 7.94Q75.53 7.69 76.36 7.69L76.36 7.69L76.36 7.69Q77.18 7.69 77.85 7.95L77.85 7.95L77.85 7.95Q78.53 8.20 79.01 8.67L79.01 8.67L79.01 8.67Q79.49 9.14 79.76 9.81L79.76 9.81L79.76 9.81Q80.02 10.49 80.02 11.30ZM75.12 11.30L75.12 11.30L75.12 11.30Q75.12 12.15 75.45 12.61L75.45 12.61L75.45 12.61Q75.78 13.06 76.37 13.06L76.37 13.06L76.37 13.06Q76.96 13.06 77.27 12.60L77.27 12.60L77.27 12.60Q77.59 12.14 77.59 11.30L77.59 11.30L77.59 11.30Q77.59 10.46 77.27 10.00L77.27 10.00L77.27 10.00Q76.94 9.55 76.36 9.55L76.36 9.55L76.36 9.55Q75.77 9.55 75.45 10.00L75.45 10.00L75.45 10.00Q75.12 10.46 75.12 11.30ZM81.19 12.00L81.19 7.99L81.19 7.99Q81.33 7.95 81.63 7.91L81.63 7.91L81.63 7.91Q81.93 7.87 82.25 7.87L82.25 7.87L82.25 7.87Q82.56 7.87 82.80 7.91L82.80 7.91L82.80 7.91Q83.05 7.95 83.22 8.08L83.22 8.08L83.22 8.08Q83.38 8.20 83.47 8.42L83.47 8.42L83.47 8.42Q83.57 8.64 83.57 8.99L83.57 8.99L83.57 12.00L83.57 12.00Q83.57 12.57 83.85 12.82L83.85 12.82L83.85 12.82Q84.13 13.06 84.66 13.06L84.66 13.06L84.66 13.06Q84.98 13.06 85.18 13.01L85.18 13.01L85.18 13.01Q85.39 12.95 85.50 12.89L85.50 12.89L85.50 7.99L85.50 7.99Q85.64 7.95 85.94 7.91L85.94 7.91L85.94 7.91Q86.24 7.87 86.56 7.87L86.56 7.87L86.56 7.87Q86.87 7.87 87.11 7.91L87.11 7.91L87.11 7.91Q87.36 7.95 87.53 8.08L87.53 8.08L87.53 8.08Q87.70 8.20 87.79 8.42L87.79 8.42L87.79 8.42Q87.88 8.64 87.88 8.99L87.88 8.99L87.88 13.24L87.88 13.24Q87.88 13.94 87.29 14.29L87.29 14.29L87.29 14.29Q86.80 14.60 86.12 14.76L86.12 14.76L86.12 14.76Q85.44 14.92 84.64 14.92L84.64 14.92L84.64 14.92Q83.89 14.92 83.25 14.76L83.25 14.76L83.25 14.76Q82.61 14.59 82.15 14.24L82.15 14.24L82.15 14.24Q81.69 13.89 81.44 13.34L81.44 13.34L81.44 13.34Q81.19 12.78 81.19 12.00L81.19 12.00ZM94.21 14.70L89.57 14.70L89.57 14.70Q89.35 14.50 89.21 14.24L89.21 14.24L89.21 14.24Q89.08 13.97 89.08 13.64L89.08 13.64L89.08 13.64Q89.08 13.36 89.21 13.08L89.21 13.08L89.21 13.08Q89.35 12.81 89.54 12.57L89.54 12.57L91.95 9.74L89.38 9.74L89.38 9.74Q89.29 9.59 89.21 9.35L89.21 9.35L89.21 9.35Q89.14 9.11 89.14 8.83L89.14 8.83L89.14 8.83Q89.14 8.34 89.35 8.13L89.35 8.13L89.35 8.13Q89.57 7.91 89.94 7.91L89.94 7.91L94.35 7.91L94.35 7.91Q94.57 8.11 94.70 8.37L94.70 8.37L94.70 8.37Q94.84 8.64 94.84 8.97L94.84 8.97L94.84 8.97Q94.84 9.25 94.70 9.53L94.70 9.53L94.70 9.53Q94.57 9.80 94.37 10.04L94.37 10.04L92.02 12.87L94.77 12.87L94.77 12.87Q94.85 13.02 94.93 13.26L94.93 13.26L94.93 13.26Q95.00 13.50 95.00 13.78L95.00 13.78L95.00 13.78Q95.00 14.27 94.79 14.48L94.79 14.48L94.79 14.48Q94.57 14.70 94.21 14.70L94.21 14.70ZM98.98 13.19L98.98 13.19L98.98 13.19Q99.22 13.19 99.50 13.14L99.50 13.14L99.50 13.14Q99.79 13.09 99.93 13.01L99.93 13.01L99.93 11.89L98.92 11.97L98.92 11.97Q98.53 12.00 98.28 12.14L98.28 12.14L98.28 12.14Q98.03 12.28 98.03 12.56L98.03 12.56L98.03 12.56Q98.03 12.84 98.24 13.01L98.24 13.01L98.24 13.01Q98.46 13.19 98.98 13.19ZM98.87 7.69L98.87 7.69L98.87 7.69Q99.62 7.69 100.25 7.84L100.25 7.84L100.25 7.84Q100.87 7.99 101.31 8.31L101.31 8.31L101.31 8.31Q101.75 8.62 101.99 9.11L101.99 9.11L101.99 9.11Q102.23 9.59 102.23 10.25L102.23 10.25L102.23 13.38L102.23 13.38Q102.23 13.75 102.02 13.98L102.02 13.98L102.02 13.98Q101.82 14.21 101.54 14.38L101.54 14.38L101.54 14.38Q100.63 14.92 98.98 14.92L98.98 14.92L98.98 14.92Q98.24 14.92 97.64 14.78L97.64 14.78L97.64 14.78Q97.05 14.64 96.62 14.36L96.62 14.36L96.62 14.36Q96.19 14.08 95.96 13.65L95.96 13.65L95.96 13.65Q95.73 13.22 95.73 12.64L95.73 12.64L95.73 12.64Q95.73 11.68 96.31 11.16L96.31 11.16L96.31 11.16Q96.88 10.64 98.08 10.51L98.08 10.51L99.92 10.32L99.92 10.22L99.92 10.22Q99.92 9.81 99.56 9.64L99.56 9.64L99.56 9.64Q99.20 9.46 98.53 9.46L98.53 9.46L98.53 9.46Q98.00 9.46 97.50 9.58L97.50 9.58L97.50 9.58Q96.99 9.69 96.59 9.86L96.59 9.86L96.59 9.86Q96.40 9.73 96.28 9.47L96.28 9.47L96.28 9.47Q96.15 9.21 96.15 8.93L96.15 8.93L96.15 8.93Q96.15 8.57 96.33 8.35L96.33 8.35L96.33 8.35Q96.50 8.13 96.87 7.98L96.87 7.98L96.87 7.98Q97.27 7.83 97.82 7.76L97.82 7.76L97.82 7.76Q98.38 7.69 98.87 7.69Z"></path></g><!----><g data-v-423bf9ae="" id="dbf07e17-8042-409a-b528-397106e9f41c" transform="matrix(2.8125,0,0,2.8125,0,0)" stroke="none" fill="white"><path d="M16 32c8.837 0 16-7.163 16-16S24.837 0 16 0 0 7.163 0 16s7.163 16 16 16zM14.817 6.421h2v8.886h8.887v2H14.817V6.421zm-5.959.437h2v14.283h14.283v2H8.858V6.858z"></path></g><!----></svg>